<svg xmlns="http://www.w3.org/2000/svg" width="900" height="900" viewBox="0 0 900 900">
  <metadata><?xpacket begin="﻿" id="W5M0MpCehiHzreSzNTczkc9d"?>
<x:xmpmeta xmlns:x="adobe:ns:meta/" x:xmptk="Adobe XMP Core 5.6-c142 79.160924, 2017/07/13-01:06:39        ">
   <rdf:RDF xmlns:rdf="http://www.w3.org/1999/02/22-rdf-syntax-ns#">
      <rdf:Description rdf:about=""/>
   </rdf:RDF>
</x:xmpmeta>
                                                                                                    
                                                                                                    
                                                                                                    
                                                                                                    
                                                                                                    
                                                                                                    
                                                                                                    
                                                                                                    
                                                                                                    
                                                                                                    
                                                                                                    
                                                                                                    
                                                                                                    
                                                                                                    
                                                                                                    
                                                                                                    
                                                                                                    
                                                                                                    
                                                                                                    
                                                                                                    
                           
<?xpacket end="w"?></metadata>
<defs>
    <style>
      .cls-1 {
        fill: #4f4e4e;
        fill-rule: evenodd;
      }
    </style>
  </defs>
  <path id="_Fö" data-name="  Fö" class="cls-1" d="M229.6,270.958a132.62,132.62,0,0,1,12.78-25.02,80.773,80.773,0,0,1,18.18-19.98,38.776,38.776,0,0,1,24.48-8.1h200.88q0,1.443-.18,4.68c-0.124,2.16-.242,4.444-0.36,6.84a67.13,67.13,0,0,1-.72,7.02c-0.36,2.284-.664,3.9-0.9,4.86a25.812,25.812,0,0,0-1.08,4.86,51.467,51.467,0,0,1-1.08,5.58q-1.806,6.126-2.88,6.12h-133.2a13.408,13.408,0,0,0-9.9,4.86,32.536,32.536,0,0,0-5.94,11.7,65.813,65.813,0,0,0-2.7,11.88q-0.9,6.48-1.26,12.42t-0.36,10.98a66.963,66.963,0,0,0,.36,7.92,12.072,12.072,0,0,1,.36,2.88h108l-11.52,37.44H308.8l-28.44,92.88H173.441l47.88-156.96Q224.561,284.1,229.6,270.958Zm36.72,166.5,26.64-86.4,11.88-14.4q0-.354-0.54-3.24t-1.26-6.12q-0.726-3.24-1.44-6.12a21.093,21.093,0,0,1-.72-3.6V312.9a57.725,57.725,0,0,1,1.08-10.98,86.324,86.324,0,0,1,2.88-10.98,131.892,131.892,0,0,1,9.54-22.68q5.94-11.154,13.14-21.96h-18a20.865,20.865,0,0,0-11.34,3.06,31.389,31.389,0,0,0-8.64,8.28,59.739,59.739,0,0,0-6.48,11.52q-2.7,6.3-4.86,12.78a184.381,184.381,0,0,0-6.12,29.52,145.845,145.845,0,0,1-5.04,25.2,86.182,86.182,0,0,1-4.86,12.78q-2.7,5.586-5.22,10.44t-5.04,9.54a46.12,46.12,0,0,0-3.96,10.08l-18,57.96h36.36Zm419.939-23.22a34.675,34.675,0,0,1-6.841,7.56,22.421,22.421,0,0,1-9,4.32,59.014,59.014,0,0,1-13.5,1.26h-6.84a15.355,15.355,0,0,0-2.52-.72,56.864,56.864,0,0,1,5.4-2.7,9.008,9.008,0,0,0,3.96-3.78l7.56-9.72a36.953,36.953,0,0,0,5.22-9.9q1.976-5.577,3.06-9.18l22.68-73.8a101.524,101.524,0,0,0,3.78-18.9,133.145,133.145,0,0,0,.541-18.18h15.12a6.854,6.854,0,0,1,5.76,2.88,17.98,17.98,0,0,1,3.059,7.2,35.266,35.266,0,0,1,.541,9.54,44.023,44.023,0,0,1-1.8,9.9l-26.28,84.96-1.08,3.96a36.215,36.215,0,0,1-2.16,4.32Q689.318,409.738,686.26,414.238Zm53.279-113.4a78.49,78.49,0,0,0,1.8-20.7,31.9,31.9,0,0,0-5.219-16.56q-4.683-6.834-16.2-6.84H552.159a32.284,32.284,0,0,0-20.34,6.84,69.621,69.621,0,0,0-15.3,16.56,109.492,109.492,0,0,0-10.8,20.7q-4.32,10.986-6.84,19.26l-24.48,79.56q-3.965,12.96-3.24,22.68t4.14,16.02a23.875,23.875,0,0,0,8.46,9.36,19.254,19.254,0,0,0,10.08,3.06h165.6a31.7,31.7,0,0,0,12.42-3.06,55.618,55.618,0,0,0,14.22-9.36,80.248,80.248,0,0,0,13.681-16.02,86,86,0,0,0,10.439-22.68l24.48-79.56Q737.195,311.821,739.539,300.838ZM594.1,294a11.321,11.321,0,0,1,8.46-4.14h46.8q5.038,0.363,5.94,4.14t-0.9,9.9l-32.04,104.04q-2.16,3.24-3.239,5.04a22.117,22.117,0,0,1-2.161,3.06,11.541,11.541,0,0,1-2.88,2.34q-1.8,1.08-5.04,2.88h-46.8q-2.16-1.8-3.24-2.88a5.364,5.364,0,0,1-1.44-2.34,11.2,11.2,0,0,1-.36-3.06v-5.04L589.24,303.9A28.226,28.226,0,0,1,594.1,294Zm-75.06,106.74a4.006,4.006,0,0,1,.36-1.8l1.08-3.96,26.28-84.96a69.5,69.5,0,0,1,3.78-10.62,65.189,65.189,0,0,1,5.22-9.54,22.415,22.415,0,0,1,7.02-6.84,18.009,18.009,0,0,1,9.54-2.52h15.12q-5.761,9-10.8,18.18a95.433,95.433,0,0,0-7.92,18.9l-22.68,73.8q-1.08,3.6-2.52,9.18a23.956,23.956,0,0,0-.72,9.9l1.8,9.72q0.356,2.886,1.8,3.78a19.594,19.594,0,0,1,3.24,2.7,15.24,15.24,0,0,0-2.52.72h-6.84q-13.322,0-17.28-5.58t-4.32-18.54a10.705,10.705,0,0,0,.36-2.52h0Zm132.84-154.8H722.8l14.4-46.8h-70.92Zm62.28-11.88h-21.6l7.56-24.12h21.6Zm-160.2,11.88h70.92l14.4-46.8h-70.92Zm62.281-11.88h-21.6l7.56-24.12h21.6Z"/>
</svg>
