<svg xmlns="http://www.w3.org/2000/svg" width="800" height="900" viewBox="0 0 800 900">
  <metadata><?xpacket begin="﻿" id="W5M0MpCehiHzreSzNTczkc9d"?>
<x:xmpmeta xmlns:x="adobe:ns:meta/" x:xmptk="Adobe XMP Core 5.6-c142 79.160924, 2017/07/13-01:06:39        ">
   <rdf:RDF xmlns:rdf="http://www.w3.org/1999/02/22-rdf-syntax-ns#">
      <rdf:Description rdf:about=""/>
   </rdf:RDF>
</x:xmpmeta>
                                                                                                    
                                                                                                    
                                                                                                    
                                                                                                    
                                                                                                    
                                                                                                    
                                                                                                    
                                                                                                    
                                                                                                    
                                                                                                    
                                                                                                    
                                                                                                    
                                                                                                    
                                                                                                    
                                                                                                    
                                                                                                    
                                                                                                    
                                                                                                    
                                                                                                    
                                                                                                    
                           
<?xpacket end="w"?></metadata>
<defs>
    <style>
      .cls-1 {
        fill-rule: evenodd;
      }
    </style>
  </defs>
  <path id="Fö" class="cls-1" d="M205.916,291.562a127.879,127.879,0,0,1,12.327-24.131,77.914,77.914,0,0,1,17.534-19.271,37.4,37.4,0,0,1,23.611-7.813h193.75q0,1.392-.173,4.514c-0.12,2.083-.233,4.286-0.347,6.6a64.906,64.906,0,0,1-.695,6.771c-0.347,2.2-.64,3.765-0.868,4.688a24.987,24.987,0,0,0-1.042,4.687,49.553,49.553,0,0,1-1.041,5.382q-1.741,5.909-2.778,5.9H317.722a12.934,12.934,0,0,0-9.549,4.687,31.4,31.4,0,0,0-5.729,11.285,63.518,63.518,0,0,0-2.6,11.458q-0.871,6.25-1.215,11.98t-0.348,10.59a64.439,64.439,0,0,0,.348,7.639,11.672,11.672,0,0,1,.347,2.778H403.138l-11.111,36.111H282.305L254.875,465H151.75l46.18-151.389Q201.055,304.236,205.916,291.562Zm35.417,160.591,25.694-83.334,11.459-13.888q0-.342-0.521-3.125t-1.215-5.9q-0.7-3.126-1.389-5.9a20.367,20.367,0,0,1-.695-3.472v-4.514a55.624,55.624,0,0,1,1.042-10.59,83.233,83.233,0,0,1,2.778-10.591,127.267,127.267,0,0,1,9.2-21.875q5.73-10.758,12.674-21.18H283a20.123,20.123,0,0,0-10.938,2.951,30.268,30.268,0,0,0-8.333,7.986,57.608,57.608,0,0,0-6.25,11.111q-2.6,6.079-4.688,12.327a177.85,177.85,0,0,0-5.9,28.472,140.617,140.617,0,0,1-4.861,24.306,83.162,83.162,0,0,1-4.687,12.326q-2.6,5.388-5.035,10.069t-4.861,9.2a44.493,44.493,0,0,0-3.819,9.722l-17.362,55.9h35.07Zm405.033-22.4a33.432,33.432,0,0,1-6.6,7.292,21.632,21.632,0,0,1-8.68,4.166,56.934,56.934,0,0,1-13.021,1.216h-6.6a14.726,14.726,0,0,0-2.43-.695,54.749,54.749,0,0,1,5.208-2.6,8.692,8.692,0,0,0,3.82-3.646l7.291-9.375a35.651,35.651,0,0,0,5.035-9.549q1.9-5.379,2.951-8.854l21.875-71.18a97.95,97.95,0,0,0,3.646-18.229,128.492,128.492,0,0,0,.521-17.535H673.97a6.609,6.609,0,0,1,5.556,2.778,17.324,17.324,0,0,1,2.951,6.944,34.037,34.037,0,0,1,.521,9.2,42.5,42.5,0,0,1-1.736,9.548l-25.347,81.945L654.873,415a35.159,35.159,0,0,1-2.083,4.167Q649.315,425.416,646.366,429.757Zm51.389-109.375a75.7,75.7,0,0,0,1.736-19.965,30.77,30.77,0,0,0-5.034-15.973q-4.516-6.591-15.625-6.6H517.026a31.136,31.136,0,0,0-19.618,6.6,67.143,67.143,0,0,0-14.757,15.973,105.606,105.606,0,0,0-10.417,19.965q-4.166,10.6-6.6,18.576l-23.611,76.736q-3.825,12.5-3.125,21.875t3.993,15.452a23.011,23.011,0,0,0,8.16,9.028A18.571,18.571,0,0,0,460.776,465H620.5a30.58,30.58,0,0,0,11.979-2.951,53.675,53.675,0,0,0,13.716-9.028,77.4,77.4,0,0,0,13.194-15.452,82.921,82.921,0,0,0,10.07-21.875l23.611-76.736Q695.492,330.975,697.755,320.382Zm-140.278-6.6a10.916,10.916,0,0,1,8.16-3.993h45.139q4.859,0.349,5.729,3.993t-0.868,9.548l-30.9,100.348q-2.084,3.125-3.125,4.861a21.326,21.326,0,0,1-2.083,2.951,11.141,11.141,0,0,1-2.778,2.257q-1.742,1.041-4.861,2.778H526.748q-2.083-1.734-3.125-2.778a5.17,5.17,0,0,1-1.389-2.257,10.775,10.775,0,0,1-.347-2.951v-4.861l30.9-100.348A27.22,27.22,0,0,1,557.477,313.785ZM485.082,416.736a3.857,3.857,0,0,1,.347-1.736l1.041-3.819,25.348-81.945a66.755,66.755,0,0,1,3.646-10.243,62.629,62.629,0,0,1,5.034-9.2,21.608,21.608,0,0,1,6.771-6.6,17.373,17.373,0,0,1,9.2-2.43h14.584q-5.559,8.683-10.417,17.535A91.951,91.951,0,0,0,533,336.528l-21.875,71.18q-1.041,3.475-2.43,8.854a23.087,23.087,0,0,0-.695,9.549l1.736,9.375q0.342,2.784,1.736,3.646a18.918,18.918,0,0,1,3.125,2.6,14.612,14.612,0,0,0-2.43.695h-6.6q-12.851,0-16.667-5.382t-4.167-17.882a10.367,10.367,0,0,0,.348-2.431h0Zm128.125-149.3h68.4L695.5,222.292H627.1Zm60.069-11.459H652.443l7.291-23.264h20.834ZM518.762,267.431h68.4l13.889-45.139h-68.4Zm60.07-11.459H558l7.292-23.264h20.833Z"/>
</svg>
