<?xml version="1.0" standalone="no"?>
<!DOCTYPE svg PUBLIC "-//W3C//DTD SVG 20010904//EN"
 "http://www.w3.org/TR/2001/REC-SVG-20010904/DTD/svg10.dtd">
<svg version="1.0" xmlns="http://www.w3.org/2000/svg"
 width="700.000000pt" height="700.000000pt" viewBox="0 0 700.000000 700.000000"
 preserveAspectRatio="xMidYMid meet">
<metadata>
Created by potrace 1.11, written by Peter Selinger 2001-2013
</metadata>
<g transform="translate(0.000000,700.000000) scale(0.100000,-0.100000)"
fill="#000000" stroke="none">
<path d="M2109 5102 l-46 -3 -1 -1555 0 -1554 196 2 196 3 0 1549 c1 1024 -2
1550 -9 1552 -14 5 -280 10 -336 6z"/>
<path d="M2908 5102 l-68 -3 0 -194 0 -195 313 0 312 0 125 -131 125 -132 1
-211 1 -211 -126 -127 -126 -128 -312 0 -313 0 0 -195 0 -195 33 -1 c17 0 154
-2 304 -2 258 -2 273 -3 290 -22 10 -11 45 -51 78 -90 32 -38 61 -72 64 -75 4
-3 29 -32 56 -64 l50 -59 0 -196 1 -196 -30 -34 c-45 -50 -125 -138 -188 -205
l-55 -60 -302 1 -301 0 0 -194 0 -193 394 0 c381 0 395 1 409 20 7 10 36 43
63 73 27 29 83 91 124 137 41 46 82 91 90 100 8 9 49 54 90 100 41 47 81 89
88 93 9 6 12 90 12 366 l0 357 -35 42 c-20 22 -50 56 -68 75 -62 66 -172 190
-181 205 -6 11 28 51 138 161 l146 146 0 372 0 373 -242 245 -243 245 -325 3
c-179 1 -355 1 -392 -1z"/>
<path d="M4385 3178 c3 -13 9 -45 15 -73 6 -27 12 -59 14 -70 3 -11 9 -40 15
-65 5 -25 13 -60 16 -79 3 -19 7 -37 9 -40 2 -3 7 -22 10 -41 9 -52 10 -56 71
-345 25 -121 48 -229 51 -240 2 -11 13 -67 25 -124 31 -156 23 -146 113 -146
l77 0 -6 25 c-3 14 -8 37 -10 53 -9 48 -67 327 -150 722 -26 121 -48 227 -49
235 -5 31 -18 96 -26 125 -4 17 -11 42 -14 58 -6 27 -7 27 -86 27 -76 0 -79
-1 -75 -22z"/>
<path d="M4936 3183 c-3 -10 -13 -52 -21 -93 -9 -41 -18 -82 -20 -90 -2 -8
-13 -58 -24 -110 -11 -52 -26 -122 -34 -155 -14 -59 -13 -63 27 -232 38 -160
56 -213 56 -167 0 10 18 105 41 209 36 169 46 219 53 262 4 27 14 22 19 -9 3
-18 15 -76 27 -128 11 -52 25 -115 30 -140 5 -25 11 -54 14 -65 2 -11 28 -128
57 -260 29 -132 54 -242 56 -244 2 -3 37 -6 78 -7 89 -2 85 -13 50 147 -14 63
-33 148 -41 189 -22 102 -21 99 -33 150 -5 25 -13 61 -16 80 -3 19 -8 43 -11
52 -3 9 -6 25 -8 35 -2 10 -21 95 -41 188 -42 193 -85 396 -85 401 0 2 -38 4
-84 4 -72 0 -85 -3 -90 -17z"/>
<path d="M5506 3175 c-16 -63 -98 -464 -102 -500 -5 -42 68 -387 78 -369 3 5
13 45 22 89 9 44 18 89 20 100 3 11 21 101 41 200 20 99 38 191 41 205 2 14
17 87 32 163 l28 137 -77 0 c-74 0 -77 -1 -83 -25z"/>
</g>
</svg>
