<?xml version="1.0" standalone="no"?>
<!DOCTYPE svg PUBLIC "-//W3C//DTD SVG 20010904//EN"
 "http://www.w3.org/TR/2001/REC-SVG-20010904/DTD/svg10.dtd">
<svg version="1.0" xmlns="http://www.w3.org/2000/svg"
 width="900.000000pt" height="900.000000pt" viewBox="0 0 900.000000 900.000000"
 preserveAspectRatio="xMidYMid meet">
<metadata>
Created by potrace 1.11, written by Peter Selinger 2001-2013
</metadata>
<g transform="translate(0.000000,900.000000) scale(0.100000,-0.100000)"
fill="#000000" stroke="none">
<path d="M5926 6551 c-4 -6 -136 -437 -136 -443 0 -5 679 -3 683 2 2 3 32 100
67 215 34 116 64 215 67 221 4 11 -674 17 -681 5z m530 -117 c-3 -8 -20 -59
-37 -114 l-31 -100 -103 0 c-79 0 -103 3 -100 13 2 6 18 58 35 114 l32 102 56
3 c97 5 154 -2 148 -18z"/>
<path d="M6856 6511 c-8 -25 -37 -122 -66 -216 -29 -93 -53 -174 -54 -179 -1
-10 659 -15 675 -5 5 3 20 41 33 85 87 285 105 347 101 354 -2 4 -155 7 -340
7 l-335 0 -14 -46z m542 -65 c2 -3 -11 -53 -30 -113 l-34 -108 -102 -3 c-56
-1 -102 1 -102 6 0 5 16 58 35 118 l34 109 97 -2 c53 -2 99 -5 102 -7z"/>
<path d="M3130 6372 c-81 -11 -168 -61 -248 -144 -86 -88 -146 -187 -223 -363
-31 -73 -84 -236 -265 -830 -267 -872 -274 -894 -274 -900 0 -3 232 -5 515 -5
l514 0 31 103 c17 56 51 165 75 242 24 77 58 187 75 245 17 58 46 150 63 205
l32 100 542 0 c344 0 546 4 552 10 5 6 14 26 19 45 6 19 29 95 51 169 23 74
41 135 41 136 0 1 -232 2 -515 2 -283 0 -518 3 -522 7 -15 15 -7 245 13 366 8
50 44 141 66 170 50 63 7 60 734 60 l662 0 11 28 c18 44 42 181 48 273 l5 86
-988 -1 c-544 0 -1000 -2 -1014 -4z m428 -340 c-109 -178 -175 -333 -204 -477
-9 -43 -5 -172 6 -205 6 -19 13 -54 16 -78 6 -40 3 -46 -50 -112 -51 -63 -61
-83 -96 -198 -21 -70 -53 -172 -70 -227 -17 -55 -56 -180 -85 -278 -30 -98
-57 -182 -60 -187 -4 -6 -78 -10 -179 -10 l-173 0 94 303 c79 252 106 325 163
439 88 172 113 249 145 445 31 191 50 277 82 363 50 132 103 212 172 260 37
26 121 38 223 32 l57 -4 -41 -66z"/>
<path d="M5734 5999 c-112 -14 -202 -78 -298 -212 -78 -109 -147 -277 -230
-559 -14 -46 -59 -193 -101 -328 -111 -356 -114 -370 -111 -480 1 -75 7 -106
25 -147 28 -62 85 -117 138 -133 27 -8 284 -10 878 -8 l840 3 65 33 c147 73
278 235 343 422 15 43 109 345 147 475 10 33 39 126 64 207 25 80 57 193 71
251 58 240 28 410 -82 459 -42 19 -76 19 -871 21 -455 1 -850 -1 -878 -4z
m353 -228 c20 -1 18 -7 -31 -88 -95 -160 -86 -137 -266 -723 -105 -345 -110
-362 -110 -409 0 -62 20 -144 41 -167 11 -11 17 -23 15 -25 -6 -6 -121 -3
-157 4 -83 16 -118 66 -126 180 -5 69 -1 84 87 367 50 162 116 376 147 475
102 333 155 395 332 388 25 -1 56 -2 68 -2z m1301 -21 c12 -11 26 -39 33 -63
20 -74 5 -159 -71 -402 -120 -383 -161 -517 -182 -590 -24 -85 -92 -205 -149
-262 -51 -52 -110 -73 -217 -77 -97 -4 -120 6 -71 29 33 16 105 102 147 175
24 42 51 123 202 620 22 74 50 163 61 198 11 34 23 75 25 90 3 15 7 33 9 41 8
22 19 142 18 204 l0 57 86 0 c73 0 91 -3 109 -20z m-635 -91 c13 -17 16 -32
11 -63 -3 -23 -75 -268 -161 -546 -165 -538 -180 -576 -252 -616 -33 -19 -52
-21 -259 -20 -214 1 -224 2 -248 23 -29 26 -33 86 -10 155 17 52 166 537 172
558 16 66 134 431 146 455 24 46 55 68 101 74 23 3 141 5 262 4 214 -2 220 -2
238 -24z"/>
</g>
</svg>
